<mxfile host="app.diagrams.net" modified="2024-05-04T03:58:22.404Z" agent="Mozilla/5.0 (X11; Linux x86_64) AppleWebKit/537.36 (KHTML, like Gecko) Chrome/122.0.0.0 Safari/537.36" version="24.3.1" etag="NtonrsZeqjsQfUAMeq7-" type="github">
  <diagram name="Page-1" id="hQm6smFJma1wzPoWRUSz">
    <mxGraphModel>
      <root>
        <mxCell id="0" />
        <mxCell id="1" parent="0" />
        <mxCell id="2" value="Use Case" style="whiteSpace=wrap;strokeWidth=2;verticalAlign=top;" vertex="1" parent="1">
          <mxGeometry width="187" height="270" as="geometry" />
        </mxCell>
        <mxCell id="3" value="Actor" style="ellipse;aspect=fixed;strokeWidth=2;whiteSpace=wrap;" vertex="1" parent="2">
          <mxGeometry x="75" y="33" width="53" height="53" as="geometry" />
        </mxCell>
        <mxCell id="4" value="Use Case" style="rhombus;strokeWidth=2;whiteSpace=wrap;" vertex="1" parent="2">
          <mxGeometry x="43" y="136" width="117" height="117" as="geometry" />
        </mxCell>
        <mxCell id="5" value="" style="curved=1;startArrow=none;endArrow=block;exitX=0.5033166273584906;exitY=1.0002948113207548;entryX=0.5015024038461539;entryY=0.00013354700854700856;" edge="1" parent="2" source="3" target="4">
          <mxGeometry relative="1" as="geometry">
            <Array as="points" />
          </mxGeometry>
        </mxCell>
      </root>
    </mxGraphModel>
  </diagram>
</mxfile>
